<?xml version="1.0" encoding="UTF-8"?>
<svg id="Layer_1" data-name="Layer 1" xmlns="http://www.w3.org/2000/svg" viewBox="0 0 247.99 311.22">
  <defs>
    <style>
      .cls-1 {
        fill: #fff;
        isolation: isolate;
        opacity: .26;
      }

      .cls-1, .cls-2, .cls-3 {
        stroke-width: 0px;
      }

      .cls-2 {
        fill: #d32027;
      }

      .cls-3 {
        fill: #467d29;
      }
    </style>
  </defs>
  <path id="red" class="cls-2" d="M118.04,86.56s.71.73,11.36-.2,14.3-2.61,32.68,0,36.26,1.48,58.21,29.05c21.95,27.57,26.55,65.87,27.57,71.4s-4.09,29.2-5.62,36.86-12.26,37.79-33.7,60.77-43.4,19.91-48.51,24.08-12.77,2.98-24,0-2.55-1.61-13.28-1.61-17.87,2.04-32.17,1.53-25.53-5.62-51.57-25.02S7.87,234.9,1.74,203.24s5.11-55.66,15.32-77.11,23.23-31.53,46.21-37.15c7.54-1.84,27.32-3.77,44.94-3.19,12.16.4,9.83.77,9.83.77h0Z"/>
  <path id="glare" class="cls-1" d="M47.19,111.84c-12.26,9.19-18.38,33.19-31.15,56.17s4.6,59.74,10.72,79.66c6.12,19.92,41.87,35.23,36.77,35.74s-8.68-.51-26.04-13.79-16.85-18.89-26.04-37.79-4.6-59.23-2.55-68.94c2.05-9.71,12.77-30.64,23.49-45.96s18.89-16.34,24-16.85c0,0,3.06,2.55-9.19,11.74v.02ZM215.19,131.24c28.6,19.91,7.66,34.72,21.96,63.83,14.3,29.11-45.96,64.34-35.23,62.81s16.34-12.26,30.13-28.6,10.21-30.13,11.23-37.48-3.16-38.24-9.02-53.21-35.41-38.5-35.41-38.5c0,0-12.26,11.23,16.34,31.15h0Z"/>
  <path id="leaf" class="cls-3" d="M87.02,42.9s1.79-3.7,5.36-4.98,3.96-5.62,7.66-5.62,12.51,7.91,15.96,14.94,8.01,23.11,8.01,23.11l1.19,7.66s-.77,4.86,3.06,6.96c3.83,2.1,5.95.9,5.95.9l-3.65,3.76s-9.57,1.79-10.47,1.28-18.26-2.17-18.26-2.17l13.53-2.3s-3.19-17.49-7.91-23.87-11.23-11.87-13.79-14.17-5.11-2.81-5.11-2.81l-1.53-2.68h0ZM125.13,79.03l-.29-3.29c-.29-3.29,6.86-7.57,6.86-7.57l2.5.64s5.03,3.32,10.52,5.36,17.87,1.15,31.28-1.66,17.62-7.91,28.98-13.66,24-25.15,29.62-35.11,4.6-23.74,4.6-23.74c0,0-7.53,10.47-14.81,12.89s-45.83-.89-60.77,1.02-23.74,13.4-29.41,20.94-4.16,20.68-4.16,20.68c0,0,.64,8.3-1.28,11.11s-5.15,2.35-5.15,2.35l1.52,10.03h0ZM131.95,61.65c-2.43,2.54-3.19,6.53-3.32,6.53s3.06,0,3.06,0c0,0,3.45-4.34,4.09-5.11s4.6-5.11,4.6-5.11l8.94-5.62s5.23-2.55,6.26-3.06,6.38-2.94,6.38-2.94l5.49-2.55s14.43-5.11,19.15-6.38,6.26-1.53,8.55-2.55,12.26-7.66,13.91-8.81,10.21-7.4,10.21-7.4l-24.89,15.19s-11.68,3.95-19.77,6.56c-4.08,1.32-7.25,2.29-7.55,2.25-.89-.13-28.34,12.64-28.34,12.64,0,0-4.34,3.83-6.77,6.37h0Z"/>
</svg>