<?xml version="1.0" encoding="UTF-8"?>
<svg id="Layer_2" data-name="Layer 2" xmlns="http://www.w3.org/2000/svg" xmlns:xlink="http://www.w3.org/1999/xlink" viewBox="0 0 196.34 117.35">
  <defs>
    <style>
      .cls-1 {
        fill: url(#linear-gradient);
      }

      .cls-1, .cls-2, .cls-3 {
        stroke-width: 0px;
      }

      .cls-2 {
        fill: #51b448;
      }

      .cls-3 {
        fill: #fff;
        isolation: isolate;
        opacity: .39;
      }
    </style>
    <linearGradient id="linear-gradient" x1="51.69" y1="47.73" x2="196.34" y2="47.73" gradientTransform="translate(0 117.89) scale(1 -1)" gradientUnits="userSpaceOnUse">
      <stop offset="0" stop-color="#7cc242"/>
      <stop offset=".15" stop-color="#89c63b"/>
      <stop offset=".44" stop-color="#add329"/>
      <stop offset=".84" stop-color="#e6e80c"/>
      <stop offset=".99" stop-color="#fff200"/>
    </linearGradient>
  </defs>
  <path id="yellow" class="cls-1" d="M188.96,61.39s-5.11-22.98-26.3-30.64-26.81-9.19-45.7-6.64-35.74,8.68-39.57,12.77-23.23,20.68-25.02,28.09c-1.79,7.41-.77,12.51,12.26,25.02s21.96,19.4,43.15,24.26c21.19,4.86,41.62,4.6,55.15-5.11s21.7-16.85,21.96-17.87,8.43-4.6,9.19-8.94,3.57-6.73,1.53-12.17l-2.04-5.44-4.6-3.32h-.01Z"/>
  <path id="leaf" class="cls-2" d="M71.37.16s14.81,15.16,15,31.3-10.64,26.3-17.4,29.21-6.2,2.28-6.2,2.28c0,0-14.83-27.61-10.19-40.89C57.23,8.77,64.18-.13,67.77,0l3.58.14s.02.02.02.02ZM0,27.06s13.7-8.08,30.21.26c16.52,8.34,28.27,25.5,32.09,34.4,3.82,8.9,3.11,7.95,3.11,7.95,0,0-26.44,1.52-40.64-10.57S.6,34.74.3,30.9l-.3-3.82h0v-.02Z"/>
  <path id="glare" class="cls-3" d="M104.45,38.16c.56,0,1.02.46,1.02,1.02s-.46,1.02-1.02,1.02-1.02-.46-1.02-1.02.46-1.02,1.02-1.02ZM166.11,40.2c.77,0,1.4.51,1.4,1.15s-.63,1.15-1.4,1.15-1.4-.51-1.4-1.15.63-1.15,1.4-1.15ZM163.81,56.03c.35,0,.64.29.64.64s-.29.64-.64.64-.64-.29-.64-.64.29-.64.64-.64ZM161.57,65.47c.53,0,.96.43.96.96s-.43.96-.96.96-.96-.43-.96-.96.43-.96.96-.96ZM116.32,81.82c.07,0,.13.46.13,1.02s-.06,1.02-.13,1.02-.13-.46-.13-1.02.06-1.02.13-1.02ZM97.93,81.82c.07,0,.13.23.13.51s-.06.51-.13.51-.13-.23-.13-.51.06-.51.13-.51ZM112.23,98.66c.64,0,1.15.12,1.15.26s-.51.26-1.15.26-1.15-.12-1.15-.26.51-.26,1.15-.26ZM126.35,105.31c1.3,0,2.35.4,2.35.89s-1.05.89-2.35.89-2.35-.4-2.35-.89,1.05-.89,2.35-.89ZM163.01,93.82c.8,0,1.44.29,1.44.64s-.64.64-1.44.64-1.44-.29-1.44-.64.64-.64,1.44-.64ZM117.98,60.88c.99,0,1.79.69,1.79,1.53s-.8,1.53-1.79,1.53-1.79-.69-1.79-1.53.8-1.53,1.79-1.53ZM136.87,63.01c1.27,0,2.3.55,2.3,1.23s-1.03,1.23-2.3,1.23-2.3-.55-2.3-1.23,1.03-1.23,2.3-1.23ZM64.36,78.12s9.45,15.7,21.7,21.06,21.45,0,21.45,0c0,0-16.85,1.79-25.28-6.89s-17.87-14.17-17.87-14.17ZM149.89,28.97c13.28,6.38,10.72,10.21,10.72,10.21,0,0-4.6-7.15-17.62-8.94s6.89-1.28,6.89-1.28h0Z"/>
</svg>