<?xml version="1.0" encoding="UTF-8"?>
<svg id="pineapple" data-name="Layer 2" xmlns="http://www.w3.org/2000/svg" viewBox="0 0 123.77 293.79">
  <defs>
    <style>
      .cls-1 {
        fill: #ffbc00;
      }

      .cls-1, .cls-2 {
        stroke-width: 0px;
      }

      .cls-2 {
        fill: #027b3e;
      }
       #pineapple:hover #yellow{
		fill:green;
	  }
    </style>
  </defs>
  <path id="yellow" class="cls-1" d="M34.24,131.91c-5.28,2.04-7.66,2.89-7.49,7.49s1.28,7.49,1.28,7.49c0,0,4.85-3.57,7.23-6.3s3.23-4.28,3.23-4.28l-4.26-4.4h0ZM24.7,142.13s-9.53,2.38-9.02,10.55l.51,8.17,3.57-2.21s4.77-5.28,4.94-5.96,0-5.79,0-5.79v-4.77h0ZM14.66,170.55s-6.98,9.02-6.13,13.96c.85,4.94,3.03,15.49,3.03,15.49,0,0,3.61-2.55,4.97-7.32,1.36-4.77,3.69-10.21,3.69-10.21,0,0-2.84-3.57-3.01-5.11s-2.55-6.81-2.55-6.81ZM26.74,154.72c-3.74,1.19-6.97,6.13-6.97,6.13,0,0-3.23,2.72-1.02,9.7s3.61,8.17,3.61,8.17c0,0,7.97-10.38,9.5-12.77,1.53-2.39,2.38-3.23,2.38-3.23l-3.57.51s1.02-4.09-1.7-6.81-2.22-1.7-2.22-1.7h-.01ZM7.68,195.91s-4.43,7.32-3.74,12.09,1.8,12.94,1.84,13.96,1.06,2.55,1.06,2.55c0,0,5.28-15.32,3.74-20.43s-2.89-8.17-2.89-8.17h0ZM10.86,215.32s-2.66,9.87-1.64,14.98,2.21,12.43,4.26,14.13,4.43-8.17,5.45-11.4,2.55-4.77,2.55-4.77l-3.5.34s-.14-9.53-3.63-11.4l-3.49-1.87h0ZM8.46,239.15l.52,13.62,1.87,6.98,4.37,3.4s-.01-5.28-.88-12-2.5-7.57-2.5-7.57c0,0-3.38-4.43-3.38-4.43ZM16.87,256s-1.7,8.85,1.02,12.94c2.72,4.09,7.15,7.66,7.15,7.66v-8.68s1.02-1.19,1.02-1.62.34,1.28-2.38-1.28-6.81-9.02-6.81-9.02h0ZM28.28,271.49s-4.09,6.3,0,9.7c4.09,3.4,8.85,7.32,8.85,7.32,0,0,1.53-8.51,2.55-8.51s-2.38.51-3.57-1.53-7.83-6.98-7.83-6.98ZM42.58,283.74s-1.67-.17-2.71,2.38-.19,3.4,2.71,4.43,4.09.51,7.49,1.02-.68-2.55,1.36-1.7-8.85-6.13-8.85-6.13h0ZM56.02,291.63s-.85-6.36,3.57-6.53c4.42-.17,5.62-.51,7.83,1.36s2.38,4.54,2.04,5.16-.51,1.98-3.57,1.47-4.43,1.7-7.15.11l-2.72-1.59v.02h0ZM73.05,290.38c.17-.51,5.96-7.32,8.34-6.64s3.91,4.77,3.91,4.77c0,0-1.36,3.01-4.43,3.12s-4.6.79-5.11.79-2.72-2.04-2.72-2.04h.01ZM85.3,280l2.21,8.06s5.45-1.01,8-4.37,1.7-5.06,1.7-5.06l-1.7-6.3s-.85-.85-5.45,2.55-4.77,5.11-4.77,5.11h0ZM97.35,266.89s1.74.68,1.91,2.55-.95,8.85-.95,8.85c0,0,5.72-2.21,6.91-5.7s2.38-6.38,2.38-8.43-1.36-6.13-1.53-6.81-8.71,9.53-8.71,9.53h-.01ZM116.62,239.15s-5.28,6.64-6.64,10.89,0,13.11,0,13.11l5.45-8.17,1.19-15.83ZM111.51,215.32s-2.21,7.83-3.91,9.87-3.4,4.78-3.4,4.78c0,0,1.87-1.2,2.38,2.37s2.8,13.45,2.8,13.45c0,0,7.07-7.83,5.71-17.36s-2.09-13.11-2.09-13.11h-2.34.85ZM115.26,196.94s-1.2,11.91-.85,14.81,2.89,11.91,2.89,11.91c0,0,2.04-7.66,1.36-13.36s-3.4-13.36-3.4-13.36ZM109.38,170.55s-.76,6.3-2.97,8.17-2.21,3.23-2.21,3.23l7.83,18.04s5.52-10.21,4.55-12.6-2.77-13.11-3.58-13.62-3.62-3.23-3.62-3.23h0ZM102.47,190.81s-5.77,8.34-6.62,11.91l-.85,3.57-1.7-2.38s4.09,12.6,7.83,16.85,3.06,3.74,3.06,3.74l7.66-19.23s-4.6-1.53-4.26-4.26-5.12-10.21-5.12-10.21h0ZM28.02,150.13c6.04-5.11,7.57-8.34,10.47-8s6.98,4.77,6.98,5.79,2.72-.17,2.72-.17l-1.7,1.53s-3.91,5.45-4.43,5.96-4.26,6.13-4.77,5.62-3.74.03-3.74.03c0,0-2.72-5.68-2.72-6.35s-2.81-4.41-2.81-4.41h0ZM36.28,164.43s4.09,9.7,6.3,11.23,5.62,3.06,5.62,3.06c0,0,12.94-12.6,13.11-15.49s-4.43,3.4-4.43,3.4c0,0-1.36-11.57-6.13-11.06s-8.68-.17-10.55,4.6-1.7,5.62-1.7,5.62l-2.21-1.36h0ZM23.51,182.64s2.12,4.94,2.59,8.17,2.68,9.36,5.24,9.19c2.56-.17,3.66.51,6.77-5.28s4.47-11.23,5.66-12.09-2.21,1.7-2.21,1.7c0,0-1.87-9.7-4.26-11.57s-4.69-2.21-4.69-2.21c0,0-5.54,6.47-5.88,8.17s-.66,4.09-.66,4.09l-2.57-.17h0ZM20.22,190.13l-7.26,16.51s6.18,14.3,7.26,16.17,1.93.85,1.93.85c0,0,8.34-17.02,9.19-18.21.85-1.19-3.32-.17-3.32-.17l-6.81-15.15v1.7M31.46,213.96s-.24.36-.63.97c-1.42,2.25-4.74,7.95-4.75,11.97-.01,5.11-2.57,2.38-2.57,2.38l2.95,7.32s7.43,9.87,8.45,9.19,3.4-4.6,6.3-10.38,2.81-7.49,2.81-7.49c0,0-1.78,2.42-2.64,1.97s3.37-.61-3.28-8.27l-6.65-7.66h0ZM21.21,237.79s-5.72,5.96-3.24,13.36,7.27,12.68,8.11,12.68,6.87-11.23,7.09-13.02-1.71-1.79-1.71-1.79l-10.24-11.23h-.01ZM35.6,257.33l-5.96,10.48,10.89,10.48,8.26-12h-3.23s-6.05-7.64-8.6-8.97-1.36,0-1.36,0h0ZM35.26,249.53s6.97,8.51,8.76,9.36,5.36,4.94,5.36,4.94l11.92-15.32-3.92,1.53-11.82-12.26s-2.65,5.51-4.52,8.03-4.77,2.52-4.77,2.52l-1.02,1.19h.01ZM47.34,229.11s6,11.91,8.62,12.77,6.36,5.28,8.41,3.91,8-10.55,10.21-13.62,4.6-5.96,4.6-5.96c0,0-4.43,7.18-6.13,3.68s-8.45-14.91-10.69-15.93-11.1,11.23-10.67,13.62-1.45,2.98-1.45,2.98l-2.04-2.3-.85.85h0ZM51.68,267.52s.94-.62,2.64,2.27,2.56,8.85,6.98,7.83c4.42-1.02,10.89-10.89,11.74-11.32s-2.04,0-2.04,0c0,0-.17-.26-2.72-4s-4.09-5.84-5.02-5.56-3.49-1.14-4.85.59c-1.36,1.73-3.91,5.14-3.91,5.82s-1.36,2.38-1.36,2.38l-1.45.77v1.22h0ZM63.26,250.81s3.66,1.28,5.19,5.19,2.55,8.17,6.81,7.83,10.04-9.53,10.04-9.53l2.72-4.6s-2.04.34-2.72,0-4.94-10.55-7.15-11.91-6.64,3.63-7.49,6.83-3.23,6.08-3.23,6.08l-4.17.11h0ZM75.64,266.3s3.87,2.13,4.55,3.83,3.4,8.17,3.4,8.17l12.43-10.48-6.47-11.36s-5.11,4.14-6.47,7.38-7.45,2.47-7.45,2.47h0ZM73.9,271.49c-.51-.34-6.3,8.85-8.17,8.51s1.7,4.97,1.7,4.97l4.94,3.54,10.21-8.52s-4.85-9.02-6.94-9.19-2.6.68-2.6.68h.86ZM49.73,271.49s-5.11,3.4-5.45,4.94-2.55,3.73-2.55,3.73l2.3,2.4,7.66,5.96,8.94-8.36s-6.47-6.96-7.66-7.13-3.23-1.53-3.23-1.53h0ZM91.33,213.9s-8.92,11.46-8.75,13.51l.17,2.04-3.57-.85s5.49,12.77,6.66,14.81,5.49,2.38,5.49,2.38c0,0,3.27-1.36,6.03-6.64s4.12-9.18,4.12-9.18c0,0-1.19-.07-1.7-.13s1.29-4.82-2.42-8.57-6.03-7.38-6.03-7.38h0ZM101.47,236.6s-2.62,2.89-4.12,6.3-4.05,6.13-4.05,6.13l-1.97.68s-.75-3.74.95,1.45,2.89,10.3,2.89,10.3c0,0,2.82,4.38,3.71,3.64s8.21-11,7.7-14.38.34-7.81-.68-9.17-4.43-4.94-4.43-4.94h0ZM63.96,206.3s9.77,17.02,10.11,17.36,5.11.87,5.11.87l11.99-21.13-3.14,2.55s-.68-6.47-4.77-10.04-5.7-6.64-5.7-6.64c0,0-7.58,7.32-8.77,11.91s-1.87,6.48-1.87,6.48l-2.96-1.37h0ZM32.62,205.28s3.15,1.53,3.66,4.09,2.72,9.7,5.79,11.23,4.09,5.28,5.28,4.77,14.65-19.06,13.96-21.28-3.24,1.53-3.24,1.53c0,0-3.4-10.04-6.38-10.38s-6.55-5.11-6.55-5.11c0,0-6.13,8.51-6.64,10.89s-.38,5.88-.38,5.88l-5.49-1.63h0ZM47.34,182.3s1.7,7.15,3.4,6.98,3.93,2.38,5.03,4.77,2.8,5.28,4.67,5.96,4.26,2.21,6.47-1.02,3.57-13.79,5.96-14.3,3.06-2.89,3.06-2.89c0,0-3.06.85-3.57.85s-1.53-6.13-5.45-8.68-7.49-3.4-7.49-3.4l-8.68,12.77-3.4-1.02s0-.02,0-.02ZM41.9,137.87s3.58-4.43,6.9-4.94,6.21-2.04,8.59,0,2.38,3.38,2.38,3.38l-6.13,7.69s-5.11,3.74-6.3,2.04-6.13-6.85-6.13-6.85l.68-1.32h0ZM50.75,148.94s.51,1.36,2.55,0,5.29-7.88,8-6.83c2.71,1.05,8.85,7.36,9.19,7.44s2.55-1.46,2.55-1.46v1.46s-7.05,11.71-9.91,11.34-6.75-4.49-7.36-6.35-5.03-5.6-5.03-5.6h0ZM64.87,138.38c-.51-.68,6.47-8.34,7.49-7.66s9.19,4.03,9.19,5.59-1.53,6.67-3.91,6.67-2.04,6.47-7.15,2.38-5.65-6.17-5.65-6.17c0,0,.03-.81.03-.81ZM84.11,141.11s-.51,2.04-2.55,3.91.17,3.74-2.38,3.57-1.36,3.23,0,3.57,2.72,3.57,6.64,6.64,3.21,5.45,5.35,1.02,5.37-8,3.84-9.87-10.89-8.85-10.89-8.85h0ZM63.96,163.74s3.13.68,4.66,5.28,4.94,9.87,6.3,10.04,3.06,1.7,5.28-1.53,3.77-9.21,4.78-10.9,3.56-3.57,3.56-3.57l-3.56,1.19s-3.66-9.91-8.73-8.7-4.73,1.04-6.6,4.61-5.68,3.57-5.68,3.57h-.01ZM96.53,154.54s-1.53,5.91-3.23,7.73-2.98,3.52-2.98,3.52c0,0,2.3-1.14,3.66,1.73s6.98,10.02,7.49,11.21,2.6-12.94,5.13-13.28-7.4-7.52-8.14-9.89-1.93-1.02-1.93-1.02ZM90.32,170.55s-5.36,4.94-6.21,9.02-4.94,2.04-4.94,2.04c0,0,7.32,9.02,8.51,12.43s4.43,6.92,4.43,6.92c0,0,5.96-16.45,8.51-17.64s-4.31-1.53-5.22-4.6-5.08-8.17-5.08-8.17ZM90.18,131.91s-.34-.24-.81-.48c-.96-.49-2.46-1-2.84.48-.56,2.21-1.56,5.28-1.56,5.28,0,0,6.28,7.83,8.33,8s2.38,0,2.72,0,.51-7.09.51-7.09l-6.36-6.18h0ZM99.43,142.13l-.76,7.49s2.2,5.28,4.54,7.83,3.8,3.45,3.8,3.45v-9.45l-7.59-9.31h.01Z"/>
  <path id="leaf" class="cls-2" d="M27.26,44.94s3.57,7.66,3.57,10.21,10.21,7.15,11.06,8.17c.85,1.02,9.87,9.02,10.72,10.89s4.6,5.79,4.6,5.79c0,0,5.62-12.94-2.38-24s-11.91-13.62-11.91-13.62c0,0-12.94-7.66-19.4-9.02s-7.83-1.36-7.83-1.36c0,0,11.57,12.94,11.57,12.94ZM39,37.45l-2.38-17.02s11.74,5.28,11.4,11.57c-.34,6.29-.68,10.55-.68,10.55l-8.34-5.11h0ZM53.13,0l-1.87,3.06s.17,1.53,0,6.64-1.87,20.43-1.87,20.43c0,0-2.72,12.43,0,15.66s8.85,11.91,8.85,11.91l9.87-15.15L53.13,0ZM69.47,42.55s-3.06-5.28,0-11.91,7.49-11.23,7.49-11.23c0,0,1.87,12.09,0,15.49s-7.49,7.66-7.49,7.66h0ZM59.13,62.13s1.83-.85,2.17,5.62c.34,6.47,0,7.15,0,7.15l17.19-13.79s4.09-6.3,4.6-9.87,11.74-19.23,11.74-19.23l3.57-7.32s-14.13,6.81-23.66,16.34c-9.53,9.53-15.62,21.11-15.62,21.11h0ZM58.14,83.74l1.8,3.23s5.28.17,7.49,3.23,4.09-2.38,4.09-2.38l17.7-12.94s14.81-14.47,17.36-20.94,8.85-12.09,11.91-13.28,5.28-2.38,5.28-2.38c0,0-12.94-5.28-28.43,8.85s-37.2,36.6-37.2,36.6h0ZM69.64,93.79s1.87.34,2.55,4.94.76,6.64.76,6.64c0,0,5.54-4.26,8.43-4.26s12.43-21.62,27.23-23.49l14.81-1.87s.17-5.28-4.43-4.94-24.85,2.55-34.04,9.19-12.6,9.87-13.45,11.15-1.87,2.64-1.87,2.64h.01ZM66.92,116.26l18.72-1.02s7.49-5.11,12.77-6.3,4.6-1.19,4.6-1.19c0,0-10.21-9.19-21.62-4.77s-9.53,5.62-11.06,7.83-3.4,5.45-3.4,5.45h-.01ZM61.47,88.85s-5.45,8.85-5.62,10.55,0,8,0,8l9.02,6.13s5.79-1.36,5.62-5.45-.68-6.81-.85-9.02-1.87-5.28-5.79-8.68-2.38-1.53-2.38-1.53ZM19.77,96.68s8.51,5.28,11.74,9.7c3.23,4.42,5.89,8.85,5.89,8.85,0,0,3.98,1.19,7.89,1.02s5.45,0,5.45,0v-8.34s-11.23-11.23-20.26-11.23h-10.72,0ZM24.7,118.81s2.04,3.4,5.45,3.4,8.51.85,8.51.85c0,0,2.21.68,2.21,2.04s-2.72,2.89-2.72,2.89c0,0-2.38,1.53.68,3.91s6.3,1.36,6.3,1.36c0,0,1.02-4.09,4.94-3.57s3.57-1.53,6.98,1.19,2.62,4.6,5.31,5.28,4.05-1.19,5.76-3.74,2.21-5.11,6.64-4.09-.21,2.38,3.04,4.09,5.83,2.72,7.18.34-.67-4.45,0-5.21-1.38.44-2.23-.75-1.36-2.89,1.36-2.89,10.89-.17,14.3,0,2.95-.68,4.62-1.02-8.71-9.16-19.94-6.62-12.59,2.88-12.59,2.88l-2.39,1.02-15.49-11.16-1.87,8.09s-1.02,3.57-3.74,2.21,0-1.53-10.38-1.19-11.91.68-11.91.68h-.02ZM1.05,47.66s14.13,14.47,16.34,18.38c2.21,3.91,5.62,7.15,7.32,8.85s9.19,4.77,14.64,8.34,6.98,5.78,12.26,7.91,4.43,3.83,5.28,2.13,2.53-.7,1.27-5.2-1.14-3.58-10.11-15.06S15.34,50.72,5.98,48.51s-4.94-.85-4.94-.85h0ZM1.05,76.43s7.32-4.6,21.45,0c14.13,4.6,21.62,11.91,21.62,11.91l10.89,8.34-1.02,8.68s-10.31-7.33-14.81-7.66-10.55-12.77-20.26-13.79-17.87-7.49-17.87-7.49h0Z"/>
</svg>