<?xml version="1.0" encoding="UTF-8"?>
<svg id="strawbedrry" data-name="Layer 1" xmlns="http://www.w3.org/2000/svg" viewBox="0 0 180.08 257.05">
  <defs>
    <style>
      .cls-1 {
        fill: #7b9323;
      }

      .cls-1, .cls-2, .cls-3 {
        stroke-width: 0px;
      }

      .cls-2 {
        fill: #fff;
        isolation: isolate;
        opacity: .43;
      }

      .cls-3 {
        fill: #dc0e1b;
      }
       #strawbedrry:hover #red{
		fill:green;
	  }
    </style>
  </defs>
  <path class="cls-1" d="M155.05,64.66c-16.34,8.68-35.74,4.09-35.74,4.09,0,0,18.38-36.26,19.4-45.95.76-7.24-3.6-16.2-5.01-19.63-1.14,5.31-12.7,24.52-15.42,30.86-3.06,7.15-20.43,20.43-20.43,20.43,0,0-3.6-38.82-9.62-54.46-2.14,4.24-3.95,8.61-4.96,13.4-.14.69-.39,1.26-.71,1.74,2.8,18.55,3.22,43.4,3.22,43.4,0,0-17.54-21.45-23.67-29.62-5.37-7.16-26.03-22.95-30.03-26.74,1.24,3.42,2.37,17.27,5.01,37.97,3.06,24,13.79,31.66,12.26,31.66s-23.86-10.72-23.86-10.72c0,0-23.12-13.28-25.36-10.21-2.24,3.06,25.36,31.79,25.36,31.79l123.02,4.52s13.69-9.25,17.78-12.49,13.79-24.85,13.79-24.85c0,0-8.68,6.13-25.02,14.81h0Z"/>
  <path id="red" class="cls-3" d="M140.75,82.02c20.94,10.21,29.11,41.36,30.64,58.72s-34.72,67.4-38.81,70.98-10.21,24-21.96,36.77-24,8.17-35.74,5.62-22.98-18.89-31.51-35.23-24.66-27.57-36.4-52.09S-1.72,107.04,18.71,87.64c20.43-19.4,67.89-11.23,67.89-11.23,0,0,33.21-4.6,54.15,5.62h0Z"/>
  <path id="seed" class="cls-2" d="M27.54,97.94c1.35.4,1.52,3.88.37,7.78s-3.17,6.74-4.52,6.34-1.52-3.88-.37-7.78,3.17-6.74,4.52-6.34ZM13.48,129.03c.27-4.05-.66-7.42-2.07-7.51s-2.76,3.12-3.03,7.17.66,7.42,2.07,7.51,2.76-3.12,3.03-7.17ZM45.77,167.01c-1.18-3.89-3.23-6.71-4.58-6.3s-1.48,3.89-.3,7.78,3.23,6.71,4.58,6.3,1.48-3.89.3-7.78ZM27.97,149c-.77-3.99-2.51-7.01-3.9-6.74s-1.89,3.72-1.12,7.71,2.51,7.01,3.9,6.74,1.89-3.72,1.12-7.71ZM39.21,189c-1.48-3.78-3.75-6.43-5.06-5.92s-1.17,4,.31,7.78,3.75,6.43,5.06,5.92,1.17-4-.31-7.78ZM156.04,109.63c-1.18-3.89-3.23-6.71-4.58-6.3s-1.48,3.89-.3,7.78,3.23,6.71,4.58,6.3,1.48-3.89.3-7.78ZM134.71,131.21c0-4.06-1.14-7.36-2.55-7.36s-2.55,3.29-2.55,7.36,1.14,7.36,2.55,7.36,2.55-3.29,2.55-7.36ZM131.72,101.99c-1.18-3.89-3.23-6.71-4.58-6.3s-1.48,3.89-.3,7.78c1.18,3.89,3.23,6.71,4.58,6.3s1.48-3.89.3-7.78ZM42.53,125.53c-1.18-3.89-3.23-6.71-4.58-6.3s-1.48,3.89-.3,7.78c1.18,3.89,3.23,6.71,4.58,6.3s1.48-3.89.3-7.78ZM69.17,187.8c-.15-4.06-1.42-7.31-2.83-7.25s-2.43,3.39-2.27,7.45c.15,4.06,1.42,7.31,2.83,7.25,1.41-.05,2.43-3.39,2.27-7.45ZM59.19,158.08c-.41-4.04-1.87-7.21-3.28-7.07s-2.21,3.53-1.81,7.58c.41,4.04,1.87,7.21,3.28,7.07,1.4-.14,2.21-3.53,1.81-7.58ZM81.93,137.24c.27-4.05-.66-7.42-2.07-7.51s-2.76,3.12-3.03,7.17.66,7.42,2.07,7.51,2.76-3.12,3.03-7.17ZM77.86,103.01c0-4.06-1.14-7.36-2.55-7.36s-2.55,3.29-2.55,7.36,1.14,7.36,2.55,7.36,2.55-3.29,2.55-7.36ZM85.74,166.04c.27-4.05-.66-7.42-2.07-7.51s-2.76,3.12-3.03,7.17.66,7.42,2.07,7.51,2.76-3.12,3.03-7.17ZM105.77,105.9c.27-4.05-.66-7.42-2.07-7.51s-2.76,3.12-3.03,7.17c-.27,4.05.66,7.42,2.07,7.51s2.76-3.12,3.03-7.17ZM114.79,158.72c.27-4.05-.66-7.42-2.07-7.51s-2.76,3.12-3.03,7.17.66,7.42,2.07,7.51,2.76-3.12,3.03-7.17ZM151.89,156.23c.27-4.05-.66-7.42-2.07-7.51s-2.76,3.12-3.03,7.17.66,7.42,2.07,7.51,2.76-3.12,3.03-7.17ZM100.49,200.83c.27-4.05-.66-7.42-2.07-7.51s-2.76,3.12-3.03,7.17.66,7.42,2.07,7.51,2.76-3.12,3.03-7.17ZM127.38,195.41c.27-4.05-.66-7.42-2.07-7.51s-2.76,3.12-3.03,7.17.66,7.42,2.07,7.51,2.76-3.12,3.03-7.17ZM77.3,222.14c-.77-3.99-2.51-7.01-3.9-6.74s-1.89,3.72-1.12,7.71,2.51,7.01,3.9,6.74,1.89-3.72,1.12-7.71Z"/>
</svg>