<?xml version="1.0" encoding="UTF-8"?>
<svg id="tangerine" data-name="Layer 2" xmlns="http://www.w3.org/2000/svg" viewBox="0 0 109.72 109.82">
  <defs>
    <style>
      .cls-1 {
        fill: #662313;
      }

      .cls-1, .cls-2, .cls-3, .cls-4 {
        stroke-width: 0px;
      }

      .cls-2 {
        fill: #fff;
        isolation: isolate;
        opacity: .13;
      }

      .cls-3 {
        fill: #5a9240;
      }

      .cls-4 {
        fill: #ff8500;
      }
       #tangerine:hover #orange{
		fill:green;
	  }
    <script>
const apple = document.querySelector("#tangerine");
function logID() {
console.log(this.id);
}

apple.addEventListener("click", logID);
</script>
    </style>
  </defs>
  <path id="orange" class="cls-4" d="M59.25,8.88c27.87,0,50.47,22.6,50.47,50.47s-22.6,50.47-50.47,50.47S8.78,87.22,8.78,59.35,31.38,8.88,59.25,8.88Z"/>
  <path id="glare" class="cls-2" d="M48.57,18.67s3.83-5.62,11.49-5.36,12.38,4.91,14.3,6.67-3.57-.52-7.66-3.34-6.26-2.18-10.09.31-8.04,1.72-8.04,1.72ZM20.36,37.18s-8.68,11.87-5.62,23.49c3.06,11.62-1.28,19.53,14.17,28.98,15.45,9.45,16.47,8.81,16.47,8.81,0,0-21.32-9.96-21.96-18.51s-8.68-27.32-4.34-34.47,1.28-8.3,1.28-8.3h0Z"/>
  <path id="komb" class="cls-1" d="M3.95,11.52s-3.13-1.21-3.7,1.47S0,17.2,2.1,17.45s13.66,3.19,15.7,4.28,6.45,3.7,7.21,4.21,1.47,1.02,1.47,1.02c0,0-.77.38-.45,1.66s.96,2.94,2.3,2.49,4.4-1.47,5.74-4.66,1.85-4.21,0-4.6-2.74.89-2.74.89c0,0-4.02-2.11-4.15-2.49s-9.96-4.91-12-5.62-11.23-3.13-11.23-3.13c0,0,0,.02,0,.02Z"/>
  <path id="leaf" class="cls-3" d="M20.36,18.09s1.02-9.32,10.79-14.17S53.17-.42,58.72.92c5.55,1.34,4.85,1.34,4.85,1.34,0,0-8.62,13.02-19.34,15.45s-20.04,2.81-21.96,1.6l-1.91-1.21h0Z"/>
</svg>